<?xml version="1.0" encoding="utf-8"?>
<!-- Generator: Adobe Illustrator 21.0.0, SVG Export Plug-In . SVG Version: 6.00 Build 0)  -->
<svg version="1.1" id="Capa_1" xmlns="http://www.w3.org/2000/svg" xmlns:xlink="http://www.w3.org/1999/xlink" x="0px" y="0px"
	 viewBox="0 0 416.6 103.9" style="enable-background:new 0 0 416.6 103.9;" xml:space="preserve">
<style type="text/css">
	.st0{fill:#231F20;}
</style>
<g>
	<g>
		<path class="st0" d="M75.3,5.9C56.1-3.6,37.4-1.4,20,11.2l-2.8,2.1l-3.6,0.5c0,0-5.7,0.9-8.5,1.3l5.5,5.2L8.8,23
			C3.2,31.4,0,40.6,0,50.6C0,72.1,9.5,88.5,28.7,98c19.3,9.6,38,7.2,55.5-5.5l2.5-1.7l12.5-2.1l-6-5.3c7.1-9.6,10.8-19.7,10.6-30.9
			C103.6,31.4,94.1,15.3,75.3,5.9z M90.6,76.7c-0.4,0.6-0.9,1.2-1.7,2.3l-4.8-4.7l-1.7,12.1L80,88.2C64.8,99,48.5,101.1,31.7,92.9
			C15.2,84.7,6.5,70.8,6,52.2c-0.2-9.3,2.5-17.8,7.6-25.5c0.3-0.5,0.7-1.1,1.6-2.3l4.5,5.1c0.5-3.2,0.8-6.5,1.5-9.7l0.4-2.2l1.5-1.3
			C40.5,2.1,66.1,3.1,83.1,18.4C99.5,33.1,102.7,58.3,90.6,76.7z"/>
		<path class="st0" d="M61.4,62.1c0.8-3.6,1.7-7.2,2.5-10.8c0.5-2.4-0.3-3.6-2.2-3.7c-2.3-0.1-4.6,1.6-5.2,3.9
			c-0.9,3.7-1.7,7.4-2.6,11.1l-0.4,1.7l-8.1,0c0.2-0.8,0.3-1.2,0.4-1.6c0.9-3.7,1.8-7.4,2.6-11.1c0.6-2.6-0.2-3.9-2.1-4
			c-2.3-0.1-4.6,1.6-5.2,3.8c-0.9,3.7-1.7,7.4-2.6,11.1l-0.4,1.8l-8.1,0c1.4-6.1,2.7-11.7,4-17.5c-4.4,0-8.6,0-12.8,0
			C18.3,59,25.3,76.8,43.3,82c18.3,5.2,33.6-6.7,37.2-17.6c-6.4,0-12.8,0-19.5,0C61.2,63.2,61.3,62.7,61.4,62.1z"/>
		<path class="st0" d="M56.1,21c-14.9-2.2-30.6,7.1-33.4,19.2l20.7,0l0,1.2c7-3.5,10.1-1.8,13.9,1.8c0.9-0.6,1.7-1.3,2.7-1.8
			c3.3-2,6.8-2.7,10.2-0.3c3.3,2.3,2.8,5.6,2.1,8.9c-0.6,2.5-1.1,5-1.7,7.7c4.2,0,8.1,0,12.2,0C86.1,40.1,74.2,23.7,56.1,21z"/>
		<path class="st0" d="M154.2,34.6c-1.1-0.8-2.3-1.3-3.4-1.6c-1.2-0.3-2.1-0.4-2.8-0.4c-2.6,0-4.7,0.5-6.5,1.6
			c-1.6,0.9-2.9,2.2-4.1,3.7c-1-1.8-2.3-3.1-3.8-3.9c-3.5-1.9-7.3-1.7-10.9-0.1c-1.6,0.7-3,1.9-4.2,3.5v-3.7h-5.8v31h5.8V46.9
			c0-1.4,0.2-2.7,0.7-3.8c0.4-1.1,1.1-2,1.8-2.7c0.8-0.7,1.6-1.3,2.6-1.6c1.7-0.6,3.6-0.8,5.3-0.2c0.7,0.2,1.3,0.6,1.9,1.1
			c0.5,0.5,1,1.2,1.3,2.1c0.3,0.9,0.5,2,0.5,3.3v19.6h5.8V46c0-1.4,0.2-2.5,0.7-3.5c0.4-1,1-1.8,1.8-2.4c0.8-0.6,1.6-1.1,2.6-1.4
			c1.7-0.5,3.6-0.7,5.4-0.1c0.7,0.2,1.3,0.6,1.9,1.1c0.5,0.5,1,1.2,1.3,2.1c0.3,0.9,0.5,2,0.5,3.3v19.6h5.8v-21
			c0-2.4-0.4-4.3-1.2-5.8C156.3,36.5,155.3,35.4,154.2,34.6z"/>
		<rect x="163.3" y="22.4" class="st0" width="5.8" height="7.2"/>
		<rect x="163.3" y="33.7" class="st0" width="5.8" height="31"/>
		<path class="st0" d="M195.6,53.1c-0.5,2.4-1.4,4.2-2.6,5.3c-1.2,1.1-2.9,1.6-5.1,1.6c-1.5,0-2.9-0.3-4-0.8c-1.1-0.5-2-1.3-2.7-2.2
			c-0.7-1-1.3-2.1-1.6-3.4c-0.4-1.3-0.5-2.8-0.5-4.4c0-1.6,0.2-3.1,0.5-4.4c0.4-1.3,0.9-2.5,1.6-3.4c0.7-0.9,1.6-1.7,2.7-2.3
			c1.1-0.5,2.4-0.8,4-0.8c2.2,0,4,0.5,5.3,1.6c1.2,1,2,2.5,2.3,4.4l0.1,0.3h6.1l-0.1-0.5c-0.3-1.9-0.8-3.6-1.6-5
			c-0.8-1.4-1.8-2.6-3.1-3.6c-1.2-0.9-2.7-1.7-4.3-2.1c-1.6-0.5-3.3-0.7-5-0.7c-2.4,0-4.6,0.4-6.4,1.3c-1.8,0.9-3.4,2.1-4.6,3.6
			c-1.2,1.5-2.1,3.3-2.7,5.3c-0.6,2-0.9,4.2-0.9,6.4c0,2,0.3,4,0.8,5.9c0.5,1.9,1.4,3.7,2.5,5.3c1.1,1.6,2.7,2.8,4.6,3.8
			c1.9,1,4.2,1.4,6.8,1.4c1.7,0,3.4-0.2,4.8-0.6c1.5-0.4,2.8-1.1,4-2.1c1.2-1,2.2-2.3,3.1-3.9c0.9-1.6,1.6-3.5,2.1-5.8l0.1-0.5h-6.1
			L195.6,53.1z"/>
		<path class="st0" d="M221.5,32.7c-0.4,0-1-0.1-1.6-0.1c-1.7,0-3.5,0.5-5.1,1.6c-1.3,0.9-2.5,2.2-3.6,4v-4.5h-5.8v31h5.8V48.9
			c0-3.1,0.7-5.5,2.2-7.1c1.5-1.6,3.4-2.4,5.8-2.4c0.6,0,1.2,0,1.7,0.1c0.5,0.1,1.1,0.2,1.7,0.4l0.5,0.2v-7.1l-0.3-0.1
			C222.4,32.8,221.9,32.7,221.5,32.7z"/>
		<path class="st0" d="M251.7,37.6c-1.3-1.5-2.9-2.7-4.9-3.6c-2-0.9-4.3-1.3-6.8-1.3c-2.6,0-4.9,0.4-6.9,1.3
			c-1.9,0.9-3.6,2.1-4.9,3.6c-1.3,1.5-2.3,3.3-2.9,5.3c-0.6,2-1,4.1-1,6.3c0,2.2,0.3,4.4,1,6.3c0.6,2,1.6,3.8,2.9,5.3
			c1.3,1.5,2.9,2.7,4.9,3.6c1.9,0.9,4.3,1.3,6.9,1.3c2.6,0,4.9-0.5,6.8-1.3c2-0.9,3.6-2.1,4.9-3.6c1.3-1.5,2.3-3.3,2.9-5.3
			c0.6-2,1-4.1,1-6.3c0-2.2-0.3-4.4-1-6.3C253.9,40.9,253,39.1,251.7,37.6z M248.9,53.2c-0.3,1.3-0.9,2.5-1.6,3.5
			c-0.7,1-1.7,1.8-2.9,2.5c-1.2,0.6-2.7,1-4.4,1c-1.7,0-3.2-0.3-4.4-1c-1.2-0.6-2.2-1.5-2.9-2.5c-0.8-1-1.3-2.2-1.6-3.5
			c-0.3-1.3-0.5-2.6-0.5-4c0-1.3,0.2-2.7,0.5-4c0.3-1.3,0.9-2.5,1.6-3.5c0.7-1,1.7-1.8,2.9-2.5c1.2-0.6,2.7-1,4.4-1
			c1.7,0,3.2,0.3,4.4,1c1.2,0.6,2.2,1.5,2.9,2.5c0.7,1,1.3,2.2,1.6,3.5c0.3,1.3,0.5,2.7,0.5,4C249.4,50.5,249.3,51.9,248.9,53.2z"/>
		<rect x="259.4" y="22.4" class="st0" width="5.8" height="42.3"/>
		<path class="st0" d="M291.8,34.3c-1.2-0.6-2.6-1.1-4-1.3c-1.4-0.2-2.8-0.3-4.2-0.3c-4,0-7.2,0.8-9.5,2.5c-2.3,1.7-3.6,4.5-4,8.4
			l0,0.4h5.5l0-0.4c0-1.1,0.3-2,0.7-2.7c0.4-0.7,1-1.3,1.6-1.7c0.7-0.4,1.5-0.7,2.4-0.9c1.8-0.4,4-0.4,5.8-0.1
			c0.9,0.1,1.6,0.4,2.3,0.7c0.6,0.3,1.1,0.8,1.5,1.3c0.4,0.6,0.5,1.4,0.5,2.3c0,1.2-0.3,2-1,2.4c-0.8,0.4-1.8,0.7-3.2,0.9l-5.7,0.7
			c-2.1,0.3-3.9,0.7-5.4,1.2c-1.5,0.5-2.7,1.2-3.6,1.9c-0.9,0.8-1.6,1.8-2,2.9c-0.4,1.1-0.6,2.4-0.6,3.8c0,1,0.2,2.1,0.5,3.2
			c0.3,1.1,0.9,2.2,1.7,3.1c0.8,0.9,2,1.7,3.4,2.3c1.4,0.6,3.3,0.9,5.5,0.9c1.1,0,2.2-0.1,3.3-0.3c1.1-0.2,2.2-0.5,3.2-1
			c1-0.4,2-1,2.8-1.6c0.6-0.4,1.1-0.9,1.5-1.4l0,3.6l4.8,0c0.1,0,0.2,0,0.3,0V41.6c0-1.8-0.4-3.4-1.2-4.6
			C294.1,35.9,293,35,291.8,34.3z M290.5,52.4c0,1.2-0.3,2.3-0.8,3.3c-0.5,1-1.2,1.8-2.1,2.6c-0.9,0.7-2,1.3-3.2,1.7
			c-1.2,0.4-2.5,0.6-3.9,0.6c-1.7,0-3.1-0.4-4.2-1.2c-1-0.8-1.5-1.8-1.5-3.1c0-1.5,0.4-2.5,1.3-3.1c0.9-0.7,2.4-1.1,4.3-1.4l5.7-0.8
			c1.4-0.2,2.5-0.4,3.3-0.7c0.4-0.1,0.8-0.3,1.1-0.6L290.5,52.4L290.5,52.4z"/>
		<path class="st0" d="M326.3,35.2c-1-0.9-2.3-1.6-3.7-2c-1.4-0.4-2.9-0.6-4.5-0.6c-2,0-3.9,0.4-5.8,1.2c-1.6,0.7-3,1.9-4.2,3.5
			v-3.7h-5.8v31h5.8V46.9c0-1.4,0.2-2.7,0.7-3.8c0.4-1.1,1-1.9,1.8-2.7c0.8-0.7,1.6-1.3,2.6-1.6c1-0.4,2-0.6,3.1-0.6
			c2.6,0,4.5,0.6,5.6,1.7c1.1,1.1,1.7,2.8,1.7,4.9v19.8h5.8v-21c0-1.9-0.3-3.6-0.9-5C328.1,37.3,327.3,36.1,326.3,35.2z"/>
		<path class="st0" d="M356,53.1c-0.5,2.4-1.4,4.2-2.6,5.3c-1.2,1.1-2.9,1.6-5.1,1.6c-1.5,0-2.9-0.3-4-0.8c-1.1-0.5-2-1.3-2.7-2.2
			c-0.7-1-1.3-2.1-1.6-3.4c-0.4-1.3-0.5-2.8-0.5-4.4c0-1.6,0.2-3.1,0.5-4.4c0.4-1.3,0.9-2.5,1.6-3.4c0.7-0.9,1.6-1.7,2.7-2.3
			c1.1-0.5,2.4-0.8,4-0.8c2.2,0,4,0.5,5.2,1.6c1.2,1,2,2.5,2.3,4.4l0.1,0.3h6.1l-0.1-0.5c-0.3-1.9-0.8-3.6-1.6-5
			c-0.8-1.4-1.8-2.6-3.1-3.6c-1.2-0.9-2.7-1.7-4.3-2.1c-1.6-0.5-3.3-0.7-5-0.7c-2.4,0-4.6,0.4-6.4,1.3c-1.8,0.9-3.4,2.1-4.6,3.6
			c-1.2,1.5-2.1,3.3-2.8,5.3c-0.6,2-0.9,4.2-0.9,6.4c0,2,0.3,4,0.8,5.9c0.5,1.9,1.4,3.7,2.5,5.3c1.1,1.6,2.7,2.8,4.5,3.8
			c1.9,1,4.2,1.4,6.8,1.4c1.7,0,3.3-0.2,4.8-0.6c1.5-0.4,2.8-1.1,4-2.1c1.2-1,2.2-2.3,3.1-3.9c0.9-1.6,1.6-3.5,2.1-5.8l0.1-0.5h-6.1
			L356,53.1z"/>
		<path class="st0" d="M390.2,36.6c-1.4-1.4-3-2.4-4.7-3c-1.7-0.6-3.5-0.9-5.3-0.9c-2.6,0-4.9,0.4-6.9,1.3c-1.9,0.9-3.6,2.1-4.9,3.6
			c-1.3,1.5-2.3,3.3-2.9,5.3c-0.6,2-1,4.1-1,6.3c0,2.2,0.3,4.4,1,6.3c0.6,2,1.6,3.8,2.9,5.3c1.3,1.5,2.9,2.7,4.9,3.6
			c1.9,0.9,4.3,1.3,6.9,1.3c1.3,0,2.7-0.2,4.1-0.6c1.4-0.4,2.7-1,3.9-1.9c1.2-0.8,2.4-1.9,3.4-3.3c1-1.3,1.9-2.9,2.5-4.8l0.2-0.5
			h-6.2l-0.1,0.3c-0.4,1-0.9,1.9-1.6,2.5c-0.6,0.7-1.3,1.2-2,1.6c-0.7,0.4-1.5,0.6-2.3,0.8c-0.8,0.1-1.5,0.2-2.2,0.2
			c-1.1,0-2.1-0.2-3.2-0.6c-1.1-0.4-2-1-2.9-1.7c-0.9-0.8-1.6-1.7-2.2-2.9c-0.5-1-0.8-2.2-1-3.6h24.1v-1.2c0-3.1-0.4-5.9-1.3-8.1
			C392.7,39.8,391.6,38,390.2,36.6z M371,46c0.2-1.1,0.6-2.1,1-3c0.6-1,1.2-1.9,2.1-2.6c0.8-0.7,1.7-1.2,2.7-1.6
			c1-0.4,2.1-0.6,3.2-0.6c2.2,0,4.2,0.7,5.8,2.1c1.5,1.3,2.5,3.2,2.9,5.6L371,46L371,46z"/>
		<path class="st0" d="M416.4,33c-0.5-0.2-1-0.3-1.4-0.3c-0.4,0-1-0.1-1.6-0.1c-1.7,0-3.5,0.5-5.1,1.6c-1.3,0.9-2.5,2.2-3.6,4v-4.5
			h-5.8v31h5.8V48.9c0-3.1,0.8-5.5,2.2-7.1c1.5-1.6,3.4-2.4,5.8-2.4c0.6,0,1.2,0,1.7,0.1c0.5,0.1,1.1,0.2,1.7,0.4l0.5,0.2v-7.1
			L416.4,33z"/>
	</g>
</g>
</svg>
